<svg width="20" height="20" viewBox="0 0 20 20" fill="none" xmlns="http://www.w3.org/2000/svg">
<g clip-path="url(#clip0_2363_224)">
<path d="M1.66667 10.17C1.66667 8.2625 1.66667 7.30917 2.10001 6.51917C2.53167 5.72833 3.3225 5.23833 4.90334 4.25667L6.57 3.2225C8.24084 2.185 9.07667 1.66667 10 1.66667C10.9233 1.66667 11.7583 2.185 13.43 3.2225L15.0967 4.25667C16.6775 5.23833 17.4683 5.72833 17.9008 6.51917C18.3333 7.31 18.3333 8.2625 18.3333 10.1692V11.4375C18.3333 14.6875 18.3333 16.3133 17.3567 17.3233C16.38 18.3333 14.8092 18.3333 11.6667 18.3333H8.33334C5.19084 18.3333 3.61917 18.3333 2.64334 17.3233C1.66751 16.3133 1.66667 14.6883 1.66667 11.4375V10.17Z" stroke="white" stroke-width="1.5"/>
<path d="M10 12.5V15" stroke="white" stroke-width="1.5" stroke-linecap="round"/>
</g>
<defs>
<clipPath id="clip0_2363_224">
<rect width="20" height="20" fill="white"/>
</clipPath>
</defs>
</svg>
